<svg xmlns="http://www.w3.org/2000/svg" width="128" height="128"><path d="M102.179 12.932l3.228 5.592 4.123-2.476-3.208-5.556zM60.884 60.99l-.832.49s1.952 1.584 2.388 1.7c.422.09-.05.224 1.118-.247-1.763-.62-2.674-1.943-2.674-1.943zm33.448-31.75L28.387 67.313c-3.64-7.214-1.502-10.966-1.502-10.966L99.39 14.486l3.597 6.114s-5.505 3.358-8.655 8.64zm10.5-5.626c1.081 1.893 3.13 5.368 3.863 6.637l-7.667 4.46c-1.028-1.764-2.513-4.29-2.965-5.454 1.612-1.817 4.643-4.343 6.77-5.643zm-63.297 94.163l24.565-9.399s-5.304-21.27-6.458-27.781c-.689-3.87 3.445-7.077 5.6-8.321l5.913-3.415c3.033-1.75 6.111-6.975 4.422-10.337l-2.554-4.337c-.437-.74-.149-1.676.596-2.106l25.092-14.487-3.086-5.345L28.922 70.76c-.13 1.163.023 4.127-2.104 5.632-4.878 3.456-1.914 5.965-1.914 5.965.265-.201.542-.385.83-.552 1.803-1.041 5.507-2.518 9.438-.981 4.068 1.585 1.425 16.127 2.855 28.594.225 1.96 2.19 6.775 3.508 8.36zm13.9-51.212c-1.014-1.704.4-6.265 2.117-7.256l5.714-3.299c1.702-1.011 6.062.247 7.025 1.977l.703 1.217c1.308 2.266-.648 5.925-2.387 6.93l-5.338 3.081c-3.354 1.05-5.747.97-7.068-1.318zM39.16 75.327c2.839 2.955 3.212 22.284 4.062 32.393.104 1.242.159 2.678 1.183 4.322 1.106-.466 4.422-1.689 7.477-2.765 3.181-1.122 7.827-2.93 8.759-3.3-1.92-10.15-9.969-41.648-9.969-41.648l-11.084 6.52s-.302 2.13-.428 4.478zm5.788 1.115c-.806-1.396.478-3.07 2.036-2.653 1.557.418 1.833 2.51.436 3.316a1.81 1.81 0 0 1-2.474-.662zm8.044 23.195c.806 1.397-.478 3.07-2.036 2.653-1.557-.417-1.832-2.509-.436-3.315a1.81 1.81 0 0 1 2.468.665zM23.05 60.235l-.034 1.217.665 3.009c-1.236-.545-2.446-1.132-3.543-1.559.943-.456 2.39-2.134 2.912-2.667z" fill="#fff" stroke="#323232" stroke-width="2.916"/></svg>